<?xml version="1.0" encoding="UTF-8"?>
<svg id="Capa_2" data-name="Capa 2" xmlns="http://www.w3.org/2000/svg" viewBox="0 0 64 58">
  <defs>
    <style>
      .cls-1 {
        fill: #fff;
      }
    </style>
  </defs>
  <g id="Capa_1-2" data-name="Capa 1">
    <path class="cls-1" d="M63.36,56.51c-1.21,0-2.61-.26-4.2-4.55-2.39-6.51-9.42-25.81-12.98-35.49.04-.13.07-.25.11-.38.43-1.54.78-3.13.78-4.85,0-6.78-4.56-11.24-10.06-11.24C27.21,0,19.81,12.21,7.72,12.21H0v.58h.95c1.64,0,2.72.32,2.72,3.62v5.68c0,2.58.19,7.43-3.16,8.53h0c-.42.23-.44.84-.04,1.1l.1.06c3.29,1.1,3.1,5.94,3.1,8.52v12.92c0,3.29-.95,3.62-2.72,3.62h-.95v.58h11.45v-.58h-1.01c-1.71,0-2.66-.32-2.66-3.62v-14.27c0-6.21-4.69-7.42-5.51-7.6-.07-.01-.12-.08-.12-.15h0c0-.07.05-.14.12-.15.82-.17,5.51-1.39,5.51-7.6v-7.04c0-2.43.59-3.24,1.53-3.5.78-.05,1.54-.15,2.29-.29h.02s0,0,0,0c8.65-1.57,15.14-8.09,24.64-8.09,6.2,0,9.68,3.42,9.68,7.56,0,.36-.16,1.23-.45,2.46-.47-1.27-.84-2.27-1.08-2.92h-7.32v.58h.64c1.52,0,2.57,1,3.13,2.29.78,1.77,1.06,2.45,1.06,2.45l1.69,4.58c-1.72,5.95-4.11,13.45-6.25,18.89-3.98-10.9-9.21-25.38-10.45-28.8h-7.19v.58h.64c3.05,0,3.44,4.22,3.44,5.39,0,12.41-12.34,20.01-12.34,30.07,0,5.65,4.39,10.33,11.07,10.33,5.85,0,9.99-4.68,12.98-10.91l3.69,10h7.32v-.58h-.7c-1.15,0-2.61-.26-4.14-4.55-.89-2.27-1.85-4.81-3.5-9.29l-.2-.56c1.4-3.45,3.44-9.22,6.27-18.86l12.44,33.83h7.32v-.58h-.64ZM23.35,56.83c-4.07,0-7.44-3.57-7.44-9.94,0-10.98,8.65-18.45,8.78-29.16l10.31,28c-2.86,6.43-6.74,11.11-11.64,11.11Z"/>
  </g>
</svg>