<svg width="20" height="20" viewBox="0 0 20 20" fill="none" xmlns="http://www.w3.org/2000/svg">
<path d="M0 8.02993C0 6.36741 0.370833 4.84206 1.1125 3.45387C1.85417 2.06567 2.85 0.914381 4.1 0L5.275 1.59601C4.275 2.32751 3.47917 3.25021 2.8875 4.36409C2.29583 5.47797 2 6.69992 2 8.02993H0ZM18 8.02993C18 6.69992 17.7042 5.47797 17.1125 4.36409C16.5208 3.25021 15.725 2.32751 14.725 1.59601L15.9 0C17.15 0.914381 18.1458 2.06567 18.8875 3.45387C19.6292 4.84206 20 6.36741 20 8.02993H18ZM2 17.0075V15.0125H4V8.02993C4 6.65004 4.41667 5.42394 5.25 4.35162C6.08333 3.2793 7.16667 2.57689 8.5 2.24439V1.54613C8.5 1.13051 8.64583 0.777224 8.9375 0.486284C9.22917 0.195345 9.58333 0.0498753 10 0.0498753C10.4167 0.0498753 10.7708 0.195345 11.0625 0.486284C11.3542 0.777224 11.5 1.13051 11.5 1.54613V2.24439C12.8333 2.57689 13.9167 3.2793 14.75 4.35162C15.5833 5.42394 16 6.65004 16 8.02993V15.0125H18V17.0075H2ZM10 20C9.45 20 8.97917 19.8047 8.5875 19.414C8.19583 19.0233 8 18.5536 8 18.005H12C12 18.5536 11.8042 19.0233 11.4125 19.414C11.0208 19.8047 10.55 20 10 20ZM6 15.0125H14V8.02993C14 6.93267 13.6083 5.99335 12.825 5.21197C12.0417 4.43059 11.1 4.0399 10 4.0399C8.9 4.0399 7.95833 4.43059 7.175 5.21197C6.39167 5.99335 6 6.93267 6 8.02993V15.0125Z" fill="#64653D"/>
</svg>
